<?xml version="1.0" encoding="UTF-8"?>
<svg id="Ebene_1" data-name="Ebene 1" xmlns="http://www.w3.org/2000/svg" viewBox="0 0 226.77 226.77">
  <defs>
    <style>
      .cls-1 {
        fill: #b4dedf;
      }

      .cls-1, .cls-2, .cls-3 {
        stroke-width: 0px;
      }

      .cls-2 {
        fill: #80caaf;
      }

      .cls-3 {
        fill: #40afd7;
      }
    </style>
  </defs>
  <path class="cls-2" d="m167.68,87.92c-10.21-8.46-23.33-13.55-37.63-13.55-32.55,0-58.93,26.34-58.93,58.83,0,9.98,2.49,19.39,6.89,27.62-13.02-10.79-21.31-27.08-21.31-45.29,0-32.49,26.39-58.84,58.93-58.84,22.55,0,42.15,12.65,52.05,31.23Z"/>
  <path class="cls-3" d="m118.57,169.07c9.38-1.6,18.28-6.35,24.96-14.13,15.19-17.69,13.15-44.33-4.58-59.5-5.44-4.66-11.73-7.7-18.28-9.15,11.96-2.04,24.71,1.06,34.65,9.56,17.72,15.17,19.77,41.81,4.58,59.5-10.53,12.26-26.57,17-41.33,13.72Z"/>
  <path class="cls-1" d="m124.45,154.25c-13.14,7.58-29.95,3.08-37.54-10.04-5.26-9.09-4.71-19.94.49-28.26-1.04,6.09-.04,12.56,3.29,18.33,7.59,13.12,24.4,17.62,37.54,10.04,4.04-2.33,7.26-5.52,9.56-9.21-1.33,7.76-5.98,14.9-13.35,19.15Z"/>
</svg>